<svg width="16" height="16" viewBox="0 0 16 16" fill="none" xmlns="http://www.w3.org/2000/svg">
<path d="M2.46875 13.3958H4.875V6.16667H2.46875V13.3958ZM5.03125 3.9375C5.02431 3.57639 4.89931 3.27778 4.65625 3.04167C4.41319 2.80556 4.09028 2.6875 3.6875 2.6875C3.28472 2.6875 2.9566 2.80556 2.70313 3.04167C2.44965 3.27778 2.32292 3.57639 2.32292 3.9375C2.32292 4.29167 2.44618 4.58854 2.69271 4.82813C2.93924 5.06771 3.26042 5.1875 3.65625 5.1875H3.66667C4.07639 5.1875 4.40625 5.06771 4.65625 4.82813C4.90625 4.58854 5.03125 4.29167 5.03125 3.9375ZM11.125 13.3958H13.5313V9.25C13.5313 8.18056 13.2778 7.37153 12.7708 6.82292C12.2639 6.27431 11.5938 6 10.7604 6C9.81597 6 9.09028 6.40625 8.58333 7.21875H8.60417V6.16667H6.19792C6.21875 6.625 6.21875 9.03472 6.19792 13.3958H8.60417V9.35417C8.60417 9.09028 8.62847 8.89583 8.67708 8.77083C8.78125 8.52778 8.9375 8.32118 9.14583 8.15104C9.35417 7.9809 9.61111 7.89583 9.91667 7.89583C10.7222 7.89583 11.125 8.44097 11.125 9.53125V13.3958ZM16 3V13C16 13.8264 15.7066 14.533 15.1198 15.1198C14.533 15.7066 13.8264 16 13 16H3C2.17361 16 1.46701 15.7066 0.880208 15.1198C0.293403 14.533 0 13.8264 0 13V3C0 2.17361 0.293403 1.46701 0.880208 0.880208C1.46701 0.293403 2.17361 0 3 0H13C13.8264 0 14.533 0.293403 15.1198 0.880208C15.7066 1.46701 16 2.17361 16 3Z" fill="white"/>
</svg>
